# xmcd
#
# Track frame offsets: 
#        150
#        18712
#        35012
#        59855
#        80897
#        107952
#        130210
#        147830
#        165259
#        195170
#        211445
#
# Disc length: 3075 seconds
#
# Revision: 0
# Processed by: cddbd v1.5.1PL2 Copyright (c) Steve Scherf et al.
# Submitted via: ExactAudioCopy v0.95b3
#
DISCID=a20c010b
DTITLE=Paul Fenton - Worldwilde Slide
DYEAR=1999
DGENRE=Blues
TTITLE0=Luddite Blues
TTITLE1=In My Arms
TTITLE2=Find My Mind
TTITLE3=If You Want Me To Love You
TTITLE4=Spoonful
TTITLE5=Get My Name
TTITLE6=Gypsy Woman
TTITLE7=Watch What You Say
TTITLE8=Trouble Is My Business
TTITLE9=Roswell Blues
TTITLE10=Crazy Crying Blues
EXTD=
EXTT0=
EXTT1=
EXTT2=
EXTT3=
EXTT4=
EXTT5=
EXTT6=
EXTT7=
EXTT8=
EXTT9=
EXTT10=
PLAYORDER=
